<svg xmlns="http://www.w3.org/2000/svg" width="22" height="22" viewBox="0 0 22 22">
  <path id="Trazado_1930" data-name="Trazado 1930" d="M13,2A11,11,0,1,0,24,13,11,11,0,0,0,13,2ZM11.9,21.723A8.787,8.787,0,0,1,4.2,13a8.93,8.93,0,0,1,.231-1.969L9.7,16.3v1.1a2.206,2.206,0,0,0,2.2,2.2Zm7.59-2.794A2.182,2.182,0,0,0,17.4,17.4H16.3V14.1A1.1,1.1,0,0,0,15.2,13H8.6V10.8h2.2a1.1,1.1,0,0,0,1.1-1.1V7.5h2.2a2.206,2.206,0,0,0,2.2-2.2V4.849a8.78,8.78,0,0,1,3.19,14.08Z" transform="translate(-2 -2)" fill="#e9603c"/>
</svg>
