<svg xmlns="http://www.w3.org/2000/svg" width="48" height="48" viewBox="0 0 48 48">
  <g id="Grupo_4560" data-name="Grupo 4560" transform="translate(-800 6903)">
    <rect id="Rectángulo_6019" data-name="Rectángulo 6019" width="48" height="48" rx="24" transform="translate(800 -6903)" fill="#fff" opacity="0.2"/>
    <path id="Trazado_1930" data-name="Trazado 1930" d="M4244.066-999.822a.632.632,0,0,1,.32.62c-.011,1.108,0,2.217,0,3.325,0,.453-.147.6-.6.6-.421,0-.842-.007-1.263,0a2.641,2.641,0,0,0-2.656,2.55c-.044,1.012-.011,2.027-.011,3.041a.514.514,0,0,0,.03.1h.269q1.572,0,3.145,0c.493,0,.629.135.629.624q0,1.65,0,3.3c0,.482-.146.625-.635.625h-3.441v.337q0,5.284,0,10.569c0,.581-.116.7-.688.7h-3.2c-.521,0-.662-.138-.662-.653v-10.952h-.788c-.523,0-1.048,0-1.571,0-.346,0-.528-.171-.53-.5q-.009-1.779,0-3.557c0-.33.174-.49.526-.493.688-.006,1.375,0,2.062,0h.3c0-.13,0-.231,0-.332.013-1.125-.062-2.26.056-3.374a6.944,6.944,0,0,1,4.582-6.043,13.626,13.626,0,0,1,2.067-.5Z" transform="translate(-3414.406 -5892.178)" fill="#fff"/>
  </g>
</svg>
