<svg xmlns="http://www.w3.org/2000/svg" width="48" height="48" viewBox="0 0 48 48">
  <g id="Grupo_4562" data-name="Grupo 4562" transform="translate(-817 6827)">
    <rect id="Rectángulo_6020" data-name="Rectángulo 6020" width="48" height="48" rx="24" transform="translate(817 -6827)" fill="#fff" opacity="0.2"/>
    <g id="Grupo_4561" data-name="Grupo 4561" transform="translate(829 -6815)">
      <path id="Trazado_1304" data-name="Trazado 1304" d="M5362.945-981.719V-993.75a2.379,2.379,0,0,0,.091-.3,6.469,6.469,0,0,1,6.249-5.628q5.638-.136,11.28,0a6.426,6.426,0,0,1,6.312,6.307c.1,3.756.085,7.519,0,11.276a6.142,6.142,0,0,1-3.432,5.5,15,15,0,0,1-2.5.839h-12.037a1.4,1.4,0,0,0-.247-.084,6.269,6.269,0,0,1-4.859-3.349A15.514,15.514,0,0,1,5362.945-981.719Zm2.134-6.043c0,1.863-.028,3.727.008,5.589a4.4,4.4,0,0,0,4.264,4.273q5.565.056,11.13,0a4.383,4.383,0,0,0,4.289-4.3q.054-5.535,0-11.071a4.383,4.383,0,0,0-4.29-4.3q-5.538-.055-11.077,0a4.4,4.4,0,0,0-4.319,4.328C5365.05-991.417,5365.078-989.589,5365.08-987.761Z" transform="translate(-5362.945 999.748)" fill="#fff"/>
      <path id="Trazado_1305" data-name="Trazado 1305" d="M5479.293-876.655a6.125,6.125,0,0,1-6.163-6.14,6.125,6.125,0,0,1,6.143-6.161,6.126,6.126,0,0,1,6.164,6.14A6.126,6.126,0,0,1,5479.293-876.655Zm4.049-6.151a4.089,4.089,0,0,0-4.073-4.056,4.086,4.086,0,0,0-4.044,4.031,4.087,4.087,0,0,0,4.046,4.083A4.089,4.089,0,0,0,5483.342-882.806Z" transform="translate(-5467.3 894.818)" fill="#fff"/>
      <path id="Trazado_1306" data-name="Trazado 1306" d="M5683.188-922.967a1.516,1.516,0,0,1,1.548,1.542,1.542,1.542,0,0,1-1.56,1.541,1.577,1.577,0,0,1-1.534-1.527A1.548,1.548,0,0,1,5683.188-922.967Z" transform="translate(-5664.777 927.03)" fill="#fff"/>
    </g>
  </g>
</svg>
