<svg xmlns="http://www.w3.org/2000/svg" width="82" height="82.016" viewBox="0 0 82 82.016">
  <g id="_1F44B-1F3FC_1_" data-name="1F44B-1F3FC (1)" transform="translate(-6.061 -9.33)">
    <g id="skin" transform="translate(15.212 10.347)">
      <path id="Trazado_1924" data-name="Trazado 1924" d="M22.815,25.044a5.715,5.715,0,0,0-7.855-2.167,5.878,5.878,0,0,0-1.214,9.188l18.8,24.952,4.383,5.6L24.066,45.543a5.715,5.715,0,0,0-7.855-2.167A5.879,5.879,0,0,0,15,52.564L27.86,69.635,38.084,82.688c8.913,10.366,23.664,9.8,33.888.768A32.553,32.553,0,0,0,82.594,63.114C83.223,56.12,83.91,37.83,83.91,37.83c-.3-4.3-5.112-7.475-5.732-5.255L70.2,48.7l-5.487-6.977L70.2,48.7l-5.487-6.977L42.76,13.285A5.715,5.715,0,0,0,34.9,11.118a5.878,5.878,0,0,0-1.214,9.188L40.617,29.5,51.089,43.511,29.212,14.3a5.715,5.715,0,0,0-7.855-2.167,5.878,5.878,0,0,0-1.214,9.188l23.919,31.42" transform="translate(-12.061 -10.347)" fill="#debb90"/>
    </g>
    <g id="line" transform="translate(7.061 10.347)">
      <path id="Trazado_1925" data-name="Trazado 1925" d="M22.815,25.044a5.715,5.715,0,0,0-7.855-2.167,5.878,5.878,0,0,0-1.214,9.188l18.8,24.952,4.383,5.6L24.066,45.543a5.715,5.715,0,0,0-7.855-2.167A5.879,5.879,0,0,0,15,52.564L27.86,69.635,38.084,82.688c8.913,10.366,23.664,9.8,33.888.768A32.553,32.553,0,0,0,82.594,63.114C83.223,56.12,83.91,37.83,83.91,37.83c-.3-4.3-5.112-7.475-5.732-5.255L70.2,48.7l-5.487-6.977L70.2,48.7l-5.487-6.977L42.76,13.285A5.715,5.715,0,0,0,34.9,11.118a5.878,5.878,0,0,0-1.214,9.188L40.617,29.5,51.089,43.511,29.212,14.3a5.715,5.715,0,0,0-7.855-2.167,5.878,5.878,0,0,0-1.214,9.188l23.919,31.42" transform="translate(-3.91 -10.347)" fill="none" stroke="#000" stroke-linecap="round" stroke-linejoin="round" stroke-width="2"/>
      <path id="Trazado_1926" data-name="Trazado 1926" d="M11.673,42.872c0,4.241,2.848,7.672,6.368,7.672" transform="translate(-4.155 10.874)" fill="none" stroke="#000" stroke-linecap="round" stroke-linejoin="round" stroke-miterlimit="10" stroke-width="2"/>
      <path id="Trazado_1927" data-name="Trazado 1927" d="M7.061,42.437c0,9.247,6.211,16.73,13.886,16.73" transform="translate(-7.061 10.591)" fill="none" stroke="#000" stroke-linecap="round" stroke-linejoin="round" stroke-miterlimit="10" stroke-width="2"/>
      <path id="Trazado_1928" data-name="Trazado 1928" d="M47.724,24.267c0-4.241-2.848-7.672-6.368-7.672" transform="translate(14.555 -6.27)" fill="none" stroke="#000" stroke-linecap="round" stroke-linejoin="round" stroke-miterlimit="10" stroke-width="2"/>
      <path id="Trazado_1929" data-name="Trazado 1929" d="M55.242,28.278c0-9.247-6.211-16.73-13.886-16.73" transform="translate(14.555 -9.562)" fill="none" stroke="#000" stroke-linecap="round" stroke-linejoin="round" stroke-miterlimit="10" stroke-width="2"/>
    </g>
  </g>
</svg>
