<svg xmlns="http://www.w3.org/2000/svg" width="48" height="48" viewBox="0 0 48 48">
  <g id="Grupo_4563" data-name="Grupo 4563" transform="translate(-162 -2921)">
    <rect id="Rectángulo_5838" data-name="Rectángulo 5838" width="48" height="48" rx="24" transform="translate(162 2921)" fill="#fff" opacity="0.2"/>
    <path id="Trazado_1863" data-name="Trazado 1863" d="M4678.566-921.139c0-.589-.013-1.179,0-1.768.019-.756.038-1.514.1-2.266.063-.769.162-1.536.276-2.3a4.278,4.278,0,0,1,.752-1.976,3.1,3.1,0,0,1,1.954-1.292,15.187,15.187,0,0,1,1.808-.2c1.552-.085,3.105-.173,4.659-.2,2.314-.042,4.628-.045,6.942-.041,1,0,1.995.058,2.991.1.575.023,1.151.042,1.724.1.768.077,1.538.159,2.3.3a2.825,2.825,0,0,1,1.513.929,4.088,4.088,0,0,1,1.01,2.295c.1.664.176,1.332.234,2,.056.645.094,1.293.1,1.94q.034,2.071.026,4.142c0,.729-.026,1.46-.085,2.186a14.53,14.53,0,0,1-.5,3.252,3.394,3.394,0,0,1-2.016,2.243,4.8,4.8,0,0,1-1.344.25c-.417.043-.833.1-1.25.142-.3.029-.593.045-.889.057-.515.022-1.029.041-1.543.053-1.425.034-2.851.073-4.275.091-1.121.014-2.241.005-3.362,0q-1.515-.013-3.033-.052c-.673-.017-1.348-.049-2.021-.091q-.907-.056-1.812-.152a11.5,11.5,0,0,1-1.32-.2,3.065,3.065,0,0,1-1.813-1.246,4.674,4.674,0,0,1-.768-2.053,21.274,21.274,0,0,1-.274-2.605c-.017-.4-.049-.8-.054-1.194-.008-.811,0-1.622,0-2.433Zm9.792,4.472,8.417-4.768-8.417-4.8Z" transform="translate(-4505.562 3866.189)" fill="#fff"/>
  </g>
</svg>
