<svg xmlns="http://www.w3.org/2000/svg" width="758.955" height="80" viewBox="0 0 758.955 80">
  <g id="Grupo_4542" data-name="Grupo 4542" transform="translate(-110.738 -96.136)">
    <path id="Trazado_1812" data-name="Trazado 1812" d="M241.5,105.214c-2.621-.316-16.458-.345-16.458-.345l1.669,1.993v31.055l-1.648,1.858H237.23c5.223.326,19.092-1.675,19.092-17.175C256.322,108.593,244.363,105.562,241.5,105.214ZM250,121.432c-.232,19.772-17.364,15.98-17.364,15.98V123.551h13.513l1.4-3.754-2.157.585H232.454l.005-12.343s3.1-.011,3.333,0C250.705,108.623,250,121.432,250,121.432Z" transform="translate(193.933 14.817)" fill="#fff" fill-rule="evenodd"/>
    <path id="Trazado_1813" data-name="Trazado 1813" d="M154.314,100.1l-20.686,48.292L112.495,100.34l-.095,58.348-1.662,2.115h8.008l-1.209-2.416.082-26.886,16.237,37.915,15.371-37.889-.051,27.313-1.209,1.963h7.556l-1.209-1.813Z" transform="translate(0 6.72)" fill="#fff" fill-rule="evenodd"/>
    <path id="Trazado_1814" data-name="Trazado 1814" d="M210.13,104.942H201.68l1.118,1.488v31.636l-1.118,1.585h8.357l-1.21-1.771V106.338Z" transform="translate(154.298 14.941)" fill="#fff" fill-rule="evenodd"/>
    <path id="Trazado_1815" data-name="Trazado 1815" d="M203.089,127.469s11.272-1.367,11.593-9.379c.464-11.6-7.518-12.5-12.523-13.348-4.169-.005-9.94,0-9.94,0l1.491,2.84v29.857l-1.116,2.556h8.168l-1.58-1.9V107.8s9.379-3.058,10.307,7.882c0,0,0,8.157-5.674,8.9a25.7,25.7,0,0,1-3.891.353l12.712,23.69-.28,1.025h10.032l-4.188-2.419Z" transform="translate(138.245 14.596)" fill="#fff" fill-rule="evenodd"/>
    <path id="Trazado_1816" data-name="Trazado 1816" d="M195.21,112.334l-.092-.167S194.792,112.3,195.21,112.334Z" transform="translate(142.958 27.199)" fill="#fff" fill-rule="evenodd"/>
    <path id="Trazado_1817" data-name="Trazado 1817" d="M190.492,120.7V107.8h10.745l2.836.453-1.816-3.517h-19.4l1.248,1.816v31.509l-1.248,1.929h18.611l2.61-2.989-2.383.606h-11.2V123.426h15.889l1.588-3.745-2.61,1.022Z" transform="translate(122.353 14.598)" fill="#fff" fill-rule="evenodd"/>
    <path id="Trazado_1818" data-name="Trazado 1818" d="M172.228,103a1.026,1.026,0,0,0-.191.426Z" transform="translate(104.003 11.641)" fill="#fff" fill-rule="evenodd"/>
    <path id="Trazado_1819" data-name="Trazado 1819" d="M196.941,104.455h13.615q3.459-.441,4.139,1.41l-1.72-4.369H173.934l-1.826,4.045c.342-.477,1.327-1.189,4.247-1.189H190.68l.175,42.971-1.691,2.724h9.182l-1.313-2.219Z" transform="translate(104.123 9.096)" fill="#fff" fill-rule="evenodd"/>
    <path id="Trazado_1820" data-name="Trazado 1820" d="M190.217,124.152c-3.53-3.028-6.556-3.43-12.205-5.954-3.924-2.759-3.813-5.741-1.61-8.869,0,0,6.251-7.47,14.017,5.846v-7.766c-2.422,2.117-4.04-2.319-10.193-3.026-8.365-1.011-17.242,14.319-4.231,19.667a41.913,41.913,0,0,1,8.667,4.522s5.757,2.74,1.359,9.881c0,0-7.507,9.487-15.875-7.947l-.4,6.556s9.08,11.7,18.7,3.808C192.642,137.668,195.263,128.087,190.217,124.152Z" transform="translate(99.54 13.911)" fill="#fff" fill-rule="evenodd"/>
    <path id="Trazado_1821" data-name="Trazado 1821" d="M212.56,104.183l-35.324,32.3V107.3l.6-1.776H172.4l.756,2.381v23.933L143.9,103.952v35.2l-1.059,1.815h5.815L147.562,139V117.337l24.385,23.63L156.9,154.262h10.515l-.782-1.506,28.946-29.073h8.347l1.206-2.721h-6.984l8.492-8.273v26.6l-.937,1.829h7.82l-.869-1.795Z" transform="translate(54.466 13.261)" fill="#fff" fill-rule="evenodd"/>
    <path id="Trazado_1822" data-name="Trazado 1822" d="M146.758,104.075a19.328,19.328,0,1,0,18.8,19.322A19.065,19.065,0,0,0,146.758,104.075Zm0,35.469c-7.427,0-13.756-7.011-13.756-15.929s6.329-16.366,13.756-16.366,13.448,7.23,13.448,16.148S154.184,139.544,146.758,139.544Z" transform="translate(29.222 13.47)" fill="#fff" fill-rule="evenodd"/>
    <path id="Trazado_1823" data-name="Trazado 1823" d="M223.965,104.1a19.327,19.327,0,1,0,18.8,19.319A19.062,19.062,0,0,0,223.965,104.1Zm0,35.469c-7.427,0-13.753-7.011-13.753-15.929s6.326-16.369,13.753-16.369,13.448,7.23,13.448,16.148S231.394,139.573,223.965,139.573Z" transform="translate(160.222 13.519)" fill="#fff" fill-rule="evenodd"/>
    <path id="Trazado_1824" data-name="Trazado 1824" d="M390.521,142.612l-.086-34.156-31.276,27.892-.084-31.365h14.508q3.365-.429,4.1,1.316L376,102.022H335.166l-1.812,4.015c.369-.48,1.394-1.157,4.236-1.157H352.8l.162,36.99-17.542,15.646H344.1l-.785-1.51,28.366-26.282h9.231L382.994,127h-8.737L384.5,116.975V143.61l-.941,1.831h6.415l14.395.049,3.39-5.113-4.983,2.235Z" transform="translate(377.703 9.986)" fill="#fff" fill-rule="evenodd"/>
    <path id="Trazado_1825" data-name="Trazado 1825" d="M333.485,103.511a.9.9,0,0,0-.208.461Z" transform="translate(377.573 12.513)" fill="#fff" fill-rule="evenodd"/>
    <path id="Trazado_1826" data-name="Trazado 1826" d="M374.42,136.622,384.665,126.6V153.23l-.938,1.831h7.831l-.871-1.8-.092-35.186-29.828,26.6-.388-4.112s-7.343,12.658-18.251,14.133-22.587.005-27.581-14.527c-3.74-10.886-2.379-18.645.769-25.122,0,0,7.58-16.6,24.747-15.414,0,0,11.677.885,20.023,14.233l.294-8.937s-.639.766-1.966-.1c-2.6-1.691-7.068-5.415-14.139-7.661,0,0-19.233-5.59-33.074,12.364-2.138,2.775-11.674,24.157,1.969,39.077,12,13.125,28.185,9.889,34.477,7.764l-12.059,10.757h8.678l-.785-1.51,28.366-26.282h8.36l2.95-2.724Z" transform="translate(331.235 0.366)" fill="#fff" fill-rule="evenodd"/>
    <path id="Trazado_1827" data-name="Trazado 1827" d="M333.62,108.524l-30.443,27.151.063-30.891,15.387-.012,2.9,1.342-2.093-4.132H278.743l-2.307,4.347,3.367-1.556h16.629V141.69l-17.822,15.893h8.678l-.783-1.509,28.366-26.282h8.357l2.951-2.723h-8.736l10.247-10.027v26.635l-.939,1.832h7.831l-.87-1.8Z" transform="translate(281.133 9.919)" fill="#fff" fill-rule="evenodd"/>
    <path id="Trazado_1828" data-name="Trazado 1828" d="M307.934,127.536l32.228,30.642.07-37.36,1.2-1.5H335.14l.944,1.634v24.823l-28.132-27.83-27.738,24.766a12.229,12.229,0,0,0-3.524-11.819c-7.106-6.429-18.078-6.836-22.932-10.973a11.781,11.781,0,0,1,1.079-17.132s14.613-9.8,24.955,12.318V102.562c-3.913,3.419-3.239-7.154-18.254-6.386-15.422.4-29.092,26.166-3.2,34.347a60.617,60.617,0,0,1,9.624,3.735s11.286,7.238,2.373,16.6c0,0-13.885,16.649-25.64-10.22l-.65,7.977s7.8,10.609,18.4,9.961l-9.546,8.521h8.678l-.785-1.507L289.162,139.3h8.359l2.95-2.724h-8.737l10.247-10.026v26.632l-.941,1.834h7.834l-.874-1.8Z" transform="translate(225.821 0)" fill="#fff" fill-rule="evenodd"/>
    <path id="Trazado_1829" data-name="Trazado 1829" d="M428.88,141.48h7.831l-.871-1.8-.092-35.185L400.376,136.84V108.493l.6-1.779h-5.446l.756,2.383-.108,23.631-29.159-27.717-.029,34.5-1.059,1.817h5.823l-1.1-1.967V117.667l24.419,23.662-14.2,12.443h10.53l-.785-1.509L417,125.763h9.23l1.208-2.723h-7.865l10.245-10.028v26.636Z" transform="translate(432.984 14.186)" fill="#fff" fill-rule="evenodd"/>
    <path id="Trazado_1830" data-name="Trazado 1830" d="M369.757,105.253H361.3l1.118,1.489v31.679l-1.118,1.587h8.366l-1.21-1.774V106.65Z" transform="translate(425.11 15.469)" fill="#fff" fill-rule="evenodd"/>
  </g>
</svg>
