<svg xmlns="http://www.w3.org/2000/svg" width="580.684" height="200.349" viewBox="0 0 580.684 200.349">
  <g id="Grupo_4434" data-name="Grupo 4434" transform="translate(-243.551 -71.338)">
    <g id="Grupo_4389" data-name="Grupo 4389" transform="translate(325.303 71.437)">
      <path id="Trazado_1774" data-name="Trazado 1774" d="M389.731,80.791l-.008,17.833h18.759l3.132-.842-2.029,5.42H389.993v20.026s24.835,5.478,25.175-23.085c0,0,1.016-18.511-20.6-19.356-.34-.012-4.833,0-4.833,0Zm-10.756-4.582s20.061.043,23.862.5c4.152.5,21.492,4.882,21.492,25.119,0,22.4-20.108,25.286-27.681,24.815H379l2.393-2.684V79.088l-2.42-2.879Z" transform="translate(67.924 -57.616)" fill="#fff" stroke="#fff" stroke-width="0.5" fill-rule="evenodd"/>
      <path id="Trazado_1775" data-name="Trazado 1775" d="M267.219,71.789l30.64,69.421,29.992-69.773v85.09l1.753,2.619H318.649l1.753-2.836.074-39.462L298.19,171.59,274.649,116.81l-.118,38.846,1.753,3.491H264.672l2.409-3.055Z" transform="translate(-264.672 -71.437)" fill="#fff" stroke="#fff" stroke-width="0.5" fill-rule="evenodd"/>
      <path id="Trazado_1776" data-name="Trazado 1776" d="M355.614,76.282l1.62,2.15V124.14l-1.62,2.291h12.117l-1.755-2.559V78.3l1.888-2.017Z" transform="translate(-0.051 -57.404)" fill="#fff" stroke="#fff" stroke-width="0.5" fill-rule="evenodd"/>
      <path id="Trazado_1777" data-name="Trazado 1777" d="M346.153,76.083l2.162,4.1v43.138l-1.623,3.694h11.847l-2.295-2.751V80.5s13.6-4.418,14.947,11.392c0,0,0,11.782-8.226,12.857-7.62,1-5.775.269-5.775.269l18.564,34.473-.406,1.477h14.544l-6.072-3.495L361.913,108.92s16.343-1.975,16.808-13.551c.672-16.75-10.9-18.055-18.161-19.286C354.52,76.075,346.153,76.083,346.153,76.083Z" transform="translate(-27.581 -57.993)" fill="#fff" stroke="#fff" stroke-width="0.5" fill-rule="evenodd"/>
      <path id="Trazado_1778" data-name="Trazado 1778" d="M336.786,76.08,338.6,78.7v45.525l-1.81,2.787h26.983l3.784-4.318-3.455.875H347.862V103.077H370.9l2.3-5.411-3.784,1.476H347.862V80.507h15.578l4.112.655L364.92,76.08Z" transform="translate(-54.837 -57.99)" fill="#fff" stroke="#fff" stroke-width="0.5" fill-rule="evenodd"/>
      <path id="Trazado_1779" data-name="Trazado 1779" d="M387.992,79.153,385.5,72.837H328.9l-2.924,6.46s.082-2.33,6.436-2.33h20.769l.254,62.082-2.451,3.935h13.309l-1.9-3.2-.133-62.67h19.74Q387.009,76.474,387.992,79.153Z" transform="translate(-86.306 -67.382)" fill="#fff" stroke="#fff" stroke-width="0.5" fill-rule="evenodd"/>
      <path id="Trazado_1780" data-name="Trazado 1780" d="M353.808,80.116V91.337c-11.26-19.239-20.323-8.447-20.323-8.447-3.194,4.52-3.355,8.829,2.334,12.815,8.191,3.647,12.574,4.227,17.7,8.6,7.315,5.685,3.511,19.528-2.58,24.156-13.946,11.4-27.107-5.5-27.107-5.5l.586-9.476c12.132,25.193,23.013,11.482,23.013,11.482,6.381-10.317-1.967-14.272-1.967-14.272s-4.019-3.043-12.566-6.538c-18.869-7.726-5.994-29.876,6.13-28.415C347.947,76.765,350.3,83.174,353.808,80.116Z" transform="translate(-93.961 -59.162)" fill="#fff" stroke="#fff" stroke-width="0.5" fill-rule="evenodd"/>
      <path id="Trazado_1781" data-name="Trazado 1781" d="M296.774,128.772l1.535-2.622V75.293l42.42,40.3V81.009l-1.1-3.44h7.886l-.876,2.566v42.158l51.215-46.669.134,50.77,1.26,2.593H387.914l1.359-2.642V87.915L376.962,99.868h10.126l-1.748,3.93h-12.1L331.27,145.8l1.134,2.176H317.158l21.817-19.208L303.62,94.631v31.3l1.585,2.839Z" transform="translate(-171.262 -60.271)" fill="#fff" stroke="#fff" stroke-width="0.5" fill-rule="evenodd"/>
      <path id="Trazado_1782" data-name="Trazado 1782" d="M289.2,103.647C289.2,90.762,298.38,80,309.147,80s19.494,10.446,19.494,23.33-8.727,23.33-19.494,23.33S289.2,116.535,289.2,103.647Zm-7.307-.316c0,15.417,12.2,27.916,27.251,27.916s27.251-12.5,27.251-27.916-12.2-27.916-27.251-27.916S281.9,87.914,281.9,103.331Z" transform="translate(-214.555 -59.916)" fill="#fff" stroke="#fff" stroke-width="0.5" fill-rule="evenodd"/>
      <path id="Trazado_1783" data-name="Trazado 1783" d="M366.416,103.676c0-12.885,9.172-23.646,19.94-23.646s19.5,10.442,19.5,23.326-8.727,23.334-19.5,23.334-19.94-10.126-19.94-23.015Zm-7.311-.319c0,15.421,12.2,27.916,27.251,27.916s27.251-12.5,27.251-27.916-12.2-27.912-27.251-27.912S359.1,87.943,359.1,103.356Z" transform="translate(10.107 -59.832)" fill="#fff" stroke="#fff" stroke-width="0.5" fill-rule="evenodd"/>
    </g>
    <g id="Grupo_4391" data-name="Grupo 4391" transform="translate(243.836 167.669)">
      <path id="Trazado_1784" data-name="Trazado 1784" d="M416.332,111.318l.129,49.349h17.774l7.225-3.23-4.915,7.387-20.87-.07h-9.3l1.364-2.646V123.626l-14.857,14.486h12.668l-3.015,3.935H389.152l-41.127,37.972,1.138,2.182H336.581L362.014,159.6l-.235-53.444H339.72c-4.121,0-5.607.982-6.142,1.671l-.3.666a1.293,1.293,0,0,1,.3-.666l2.627-5.8h59.206l2.444,6.179q-1.068-2.519-5.951-1.9H370.869l.121,45.316Z" transform="translate(16.42 -79.09)" fill="#fff" stroke="#fff" stroke-width="0.5" fill-rule="evenodd"/>
      <path id="Trazado_1785" data-name="Trazado 1785" d="M428.666,127.74l.133,50.841,1.263,2.595H418.708l1.361-2.646V140.048l-14.853,14.486h12.664l-4.277,3.935h-12.12l-41.127,37.972,1.137,2.182H348.911L366.4,183.081c-9.121,3.07-32.592,7.746-49.987-11.217-19.78-21.557-5.955-52.446-2.854-56.459,20.069-25.941,47.953-17.864,47.953-17.864,10.248,3.245,16.734,8.626,20.5,11.069,1.923,1.247,2.85.14,2.85.14l-.426,12.912c-12.1-19.286-29.03-20.564-29.03-20.564-24.89-1.707-35.88,22.271-35.88,22.271-4.563,9.359-6.537,20.568-1.114,36.3,7.237,21,24.178,23.124,39.989,20.989s26.462-20.42,26.462-20.42l.563,5.942Z" transform="translate(-63.049 -95.512)" fill="#fff" stroke="#fff" stroke-width="0.5" fill-rule="evenodd"/>
      <path id="Trazado_1786" data-name="Trazado 1786" d="M359.344,111.434l.134,50.838,1.262,2.6H349.386l1.361-2.646V123.741l-14.856,14.487h12.666l-4.278,3.934H332.163l-41.127,37.972,1.136,2.18H279.588l25.84-22.962V106.014h-24.11l-4.882,2.248,3.345-6.28h58.993l3.035,5.97-4.2-1.938-22.309.017-.092,44.631Z" transform="translate(-148.974 -79.204)" fill="#fff" stroke="#fff" stroke-width="0.5" fill-rule="evenodd"/>
      <path id="Trazado_1787" data-name="Trazado 1787" d="M327.012,104.222,367.8,144.429V108.569l-1.369-2.363h9.128l-1.745,2.174-.1,53.976-46.725-44.269.1,37.111,1.263,2.6H316.993l1.363-2.646V116.665L303.5,131.152h12.667l-4.278,3.934H299.771l-41.127,37.972,1.136,2.18H247.2Z" transform="translate(-234.052 -72.719)" fill="#fff" stroke="#fff" stroke-width="0.5" fill-rule="evenodd"/>
      <path id="Trazado_1788" data-name="Trazado 1788" d="M295.962,105.42v18.117c-14.99-31.96-36.177-17.8-36.177-17.8-6.779,5.392-8.93,16.438-1.564,24.752,7.038,5.977,22.947,6.565,33.249,15.854,10.689,10.068,4.422,26.046-5.415,33.519-22.52,18.417-41.909-7.913-41.909-7.913l.942-11.525c17.043,38.821,37.174,14.766,37.174,14.766,12.922-13.52-3.441-23.977-3.441-23.977s-3.851-2.143-13.954-5.4C227.322,134,247.141,96.778,269.5,96.194,291.271,95.084,290.293,110.361,295.962,105.42Z" transform="translate(-243.836 -96.136)" fill="#fff" stroke="#fff" stroke-width="0.5" fill-rule="evenodd"/>
      <g id="Grupo_4390" data-name="Grupo 4390" transform="translate(459.243 32.576)">
        <path id="Trazado_1789" data-name="Trazado 1789" d="M365.936,157.712l1.535-2.626.042-49.845,42.276,40.046.157-34.143-1.1-3.443h7.9l-.876,2.57v40.955L467.153,104.5l.134,50.836,1.262,2.6H457.2l1.361-2.646V116.8L443.7,131.289h11.4l-1.751,3.934H439.972l-38.235,38.286,1.138,2.18H387.608l20.585-17.978-35.4-34.187V154.87l1.588,2.842Z" transform="translate(-347.792 -104.497)" fill="#fff" stroke="#fff" stroke-width="0.5" fill-rule="evenodd"/>
        <path id="Trazado_1790" data-name="Trazado 1790" d="M361.3,105.253l1.621,2.152v45.77l-1.621,2.293h12.13l-1.754-2.562V107.272l1.892-2.019Z" transform="translate(-361.295 -102.307)" fill="#fff" stroke="#fff" stroke-width="0.5" fill-rule="evenodd"/>
      </g>
    </g>
  </g>
</svg>
